<?xml version="1.0" encoding="UTF-8" standalone="no"?>
<!DOCTYPE svg PUBLIC "-//W3C//DTD SVG 1.1//EN" "http://www.w3.org/Graphics/SVG/1.1/DTD/svg11.dtd">
<svg width="100%" height="100%" viewBox="0 0 90 89" version="1.1" xmlns="http://www.w3.org/2000/svg" xmlns:xlink="http://www.w3.org/1999/xlink" xml:space="preserve" xmlns:serif="http://www.serif.com/" style="fill-rule:evenodd;clip-rule:evenodd;stroke-linejoin:round;stroke-miterlimit:2;">
    <g id="All_glyphs">
        <path d="M20.38,9.62C20.38,14.94 16.45,19.24 10,19.24C3.92,19.24 0,14.94 0,9.62C0,4.3 4.05,0 10.25,0C16.45,0 20.25,4.18 20.38,9.62ZM0.51,88.74L0.51,26.84L19.75,26.84L19.75,88.74L0.51,88.74Z" style="fill:rgb(102,109,137);fill-rule:nonzero;"/>
        <path d="M31.26,46.58C31.26,38.86 31.01,32.41 30.76,26.84L47.46,26.84L48.35,35.45L48.73,35.45C52.944,29.045 60.186,25.258 67.85,25.45C80.51,25.44 90,33.93 90,52.15L90,88.74L70.76,88.74L70.76,54.43C70.76,46.46 68,41 61,41C55.68,41 52.52,44.67 51.13,48.21C50.64,49.757 50.426,51.379 50.5,53L50.5,88.7L31.26,88.7L31.26,46.58Z" style="fill:rgb(102,109,137);fill-rule:nonzero;"/>
    </g>
</svg>
